#!OML:ASF F:\VICON\USERDATA\INSTALL\rory3\rory3.ASF
:FULLY-SPECIFIED
:DEGREES


295
root 0.342168 17.5299 24.0757 -1.21935 1.40485 3.44523
lowerback 9.7828 -1.39377 -5.00466
upperback 0.522121 -2.33429 1.44535
thorax -4.6829 -1.03401 4.65066
lowerneck -15.5272 -2.63893 -2.14095
upperneck 21.0333 -3.45908 1.35772
head 9.24264 -1.64006 0.390784
rclavicle 4.63168e-014 -4.77083e-015
rhumerus -37.4177 -31.7567 -69.3185
rradius 20.7368
rwrist 12.043
rhand -20.2563 24.1576
rfingers 7.12502
rthumb 6.09234 -5.73485
lclavicle 4.63168e-014 -4.77083e-015
lhumerus -18.5499 -5.92434 81.1346
lradius 32.2471
lwrist 8.2984
lhand -26.058 18.4569
lfingers 7.12502
lthumb 0.489745 48.4361
rfemur -30.6658 3.86927 17.3554
rtibia 24.0069
rfoot -9.33649 -9.99953
rtoes 5.44223
lfemur 15.6666 -3.91652 -27.8566
ltibia 19.444
lfoot -15.7479 -2.02045
ltoes -14.6014
296
root 0.317147 17.5314 24.2981 -1.34668 1.52937 3.08285
lowerback 9.71055 -1.44316 -4.66757
upperback 0.604212 -2.35434 1.51839
thorax -4.56398 -1.05593 4.53378
lowerneck -15.6494 -2.60777 -2.22645
upperneck 21.0095 -3.42051 1.48586
head 9.26035 -1.61379 0.452319
rclavicle -1.38155e-014 -1.03368e-014
rhumerus -37.7032 -32.2542 -68.9952
rradius 20.4513
rwrist 12.5819
rhand -20.1362 23.4111
rfingers 7.12502
rthumb 6.2083 -6.47795
lclavicle -1.38155e-014 -1.03368e-014
lhumerus -18.7597 -5.81525 81.1547
lradius 32.6478
lwrist 8.3101
lhand -26.439 19.2838
lfingers 7.12502
lthumb 0.121763 49.2635
rfemur -30.5052 3.86525 17.977
rtibia 25.3467
rfoot -6.69811 -9.45136
rtoes -0.452833
lfemur 16.1823 -4.16666 -27.4526
ltibia 20.2478
lfoot -15.2576 -2.08602
ltoes -16.7155
297
root 0.285657 17.5509 24.5139 -1.34826 1.59218 2.79434
lowerback 9.73873 -1.4503 -4.46576
upperback 0.506505 -2.34098 1.58865
thorax -4.68881 -1.04694 4.49578
lowerneck -15.6968 -2.57092 -2.37496
upperneck 21.1136 -3.37513 1.66835
head 9.31067 -1.58356 0.544403
rclavicle -2.93207e-015 4.77083e-015
rhumerus -38.3223 -32.6899 -68.4228
rradius 20.1093
rwrist 12.7003
rhand -18.9905 23.1685
rfingers 7.12502
rthumb 7.3143 -6.68505
lclavicle -2.93207e-015 4.77083e-015
lhumerus -18.9903 -5.67989 81.2168
lradius 32.8531
lwrist 8.33201
lhand -26.6293 22.8059
lfingers 7.12502
lthumb -0.062077 52.7856
rfemur -30.5449 4.20401 18.3744
rtibia 26.3217
rfoot -4.58391 -9.11618
rtoes -4.9193
lfemur 16.2979 -4.59232 -27.1433
ltibia 21.209
lfoot -14.3535 -2.50061
ltoes -16.5099
298
root 0.260452 17.5756 24.727 -1.34133 1.55386 2.3678
lowerback 9.74517 -1.47345 -4.02553
upperback 0.358165 -2.32027 1.68696
thorax -4.86345 -1.03725 4.35181
lowerneck -15.6147 -2.5455 -2.36678
upperneck 21.2699 -3.32184 1.56134
head 9.34659 -1.57035 0.513498
rclavicle 9.54166e-015 7.95139e-016
rhumerus -39.2301 -33.9957 -67.1045
rradius 19.4412
rwrist 13.764
rhand -17.9047 23.7022
rfingers 7.12502
rthumb 8.36233 -6.11231
lclavicle 9.54166e-015 7.95139e-016
lhumerus -19.1456 -5.53342 81.2871
lradius 32.6038
lwrist 8.41926
lhand -26.861 23.2759
lfingers 7.12502
lthumb -0.285812 53.2555
rfemur -30.4925 4.58124 18.8404
rtibia 26.8936
rfoot -3.29717 -8.86769
rtoes -6.28606
lfemur 16.1432 -5.13229 -26.798
ltibia 22.4807
lfoot -13.0196 -3.03197
ltoes -15.4041
299
root 0.239966 17.6012 24.947 -1.43366 1.49613 1.65367
lowerback 9.68113 -1.5173 -3.29672
upperback 0.301234 -2.2846 1.91019
thorax -4.90964 -1.03171 4.16831
lowerneck -15.5461 -2.49432 -2.37779
upperneck 21.4039 -3.20325 1.358
head 9.37467 -1.53906 0.460802
rclavicle 3.10601e-014 -1.66979e-014
rhumerus -39.6974 -34.371 -66.4765
rradius 19.007
rwrist 14.3797
rhand -18.1393 23.9168
rfingers 7.12502
rthumb 8.13593 -5.90655
lclavicle 3.10601e-014 -1.66979e-014
lhumerus -19.282 -5.26902 81.4782
lradius 32.2904
lwrist 8.53762
lhand -28.62 18.9623
lfingers 7.12502
lthumb -1.98471 48.9328
rfemur -30.177 5.01023 19.5447
rtibia 27.3
rfoot -2.9738 -8.55734
rtoes -5.13462
lfemur 16.0064 -5.5439 -26.1379
ltibia 24.0285
lfoot -11.6201 -3.52293
ltoes -15.8841
300
root 0.219702 17.6147 25.1649 -1.58562 1.3919 1.08342
lowerback 9.67997 -1.50925 -2.73552
upperback 0.256116 -2.20267 2.08292
thorax -4.97801 -1.00001 4.0228
lowerneck -15.3395 -2.4292 -2.46645
upperneck 21.4579 -3.08979 1.33319
head 9.35398 -1.49756 0.483598
rclavicle 3.04638e-014 -3.18055e-014
rhumerus -40.0233 -34.0623 -66.406
rradius 18.8792
rwrist 14.3278
rhand -18.6577 23.6568
rfingers 7.12502
rthumb 7.63556 -6.1854
lclavicle 3.04638e-014 -3.18055e-014
lhumerus -19.5488 -5.14206 81.6881
lradius 32.1008
lwrist 8.75484
lhand -30.8068 16.3942
lfingers 7.12502
lthumb -4.09657 46.3346
rfemur -29.7429 5.39854 20.1357
rtibia 27.6663
rfoot -2.70522 -7.57333
rtoes -2.37063
lfemur 15.8658 -5.86892 -25.6412
ltibia 25.9373
lfoot -10.2322 -3.82352
ltoes -17.1989
301
root 0.202618 17.6124 25.3873 -1.81966 1.20038 0.508027
lowerback 9.60872 -1.46524 -2.06457
upperback 0.377936 -2.06318 2.19653
thorax -4.84163 -0.949924 3.73763
lowerneck -15.3331 -2.36153 -2.48493
upperneck 21.3336 -2.99149 1.34727
head 9.30795 -1.45171 0.504399
rclavicle 2.04251e-014 -2.06736e-014
rhumerus -40.4579 -35.0901 -65.5872
rradius 18.3475
rwrist 15.5305
rhand -18.7697 23.6414
rfingers 7.12502
rthumb 7.52747 -6.20469
lclavicle 2.04251e-014 -2.06736e-014
lhumerus -19.5894 -5.0696 81.8073
lradius 31.8508
lwrist 8.77761
lhand -31.2973 15.9337
lfingers 7.12502
lthumb -4.57021 45.8644
rfemur -29.1553 5.43106 20.9323
rtibia 28.151
rfoot -1.89813 -5.95549
rtoes -0.760613
lfemur 15.7497 -5.92459 -25.0968
ltibia 28.0519
lfoot -9.05488 -4.29845
ltoes -17.4426
302
root 0.188818 17.6131 25.6068 -1.92179 1.00073 0.0369409
lowerback 9.47168 -1.40944 -1.42089
upperback 0.442605 -1.91584 2.24481
thorax -4.72783 -0.893566 3.39789
lowerneck -15.4489 -2.36354 -2.37754
upperneck 21.3011 -2.98818 1.22242
head 9.31415 -1.45458 0.442903
rclavicle -2.42517e-014 5.56597e-015
rhumerus -41.1004 -36.696 -64.3631
rradius 17.7632
rwrist 17.3048
rhand -18.7949 23.4401
rfingers 7.12502
rthumb 7.50314 -6.40686
lclavicle -2.42517e-014 5.56597e-015
lhumerus -19.7179 -4.92521 81.8777
lradius 31.614
lwrist 8.43544
lhand -31.2791 15.7694
lfingers 7.12502
lthumb -4.55265 45.7004
rfemur -28.7907 5.23007 21.7264
rtibia 28.942
rfoot -1.1847 -4.85003
rtoes 2.67834
lfemur 15.2132 -5.72287 -24.5194
ltibia 30.2092
lfoot -7.44094 -5.28314
ltoes -20.755
303
root 0.172343 17.6254 25.8223 -1.97748 0.925834 -0.292919
lowerback 9.3555 -1.40086 -1.01048
upperback 0.47126 -1.85758 2.30807
thorax -4.64763 -0.874434 3.21964
lowerneck -15.7529 -2.35897 -2.25882
upperneck 21.5385 -2.94865 0.972896
head 9.44677 -1.45254 0.337951
rclavicle -1.36167e-014 -3.97569e-015
rhumerus -41.4405 -37.4895 -63.6953
rradius 17.3392
rwrist 18.2436
rhand -18.9741 23.4555
rfingers 7.12502
rthumb 7.33016 -6.39748
lclavicle -1.36167e-014 -3.97569e-015
lhumerus -19.9297 -4.42719 81.9585
lradius 31.3791
lwrist 8.06144
lhand -30.8414 17.0509
lfingers 7.12502
lthumb -4.12997 46.9906
rfemur -28.5424 4.78547 22.4253
rtibia 29.879
rfoot -1.13376 -4.51966
rtoes 5.04754
lfemur 14.4787 -5.42903 -23.9829
ltibia 32.3903
lfoot -5.30403 -6.61757
ltoes -25.9894
304
root 0.148279 17.6368 26.0411 -1.98704 0.957038 -0.115656
lowerback 9.04257 -1.38605 -1.27417
upperback 0.561465 -1.86898 2.25839
thorax -4.37068 -0.88051 3.30435
lowerneck -16.1274 -2.32353 -2.19599
upperneck 21.7789 -2.88326 0.863934
head 9.59706 -1.42714 0.29299
rclavicle 1.30452e-014 0
rhumerus -41.5375 -37.772 -63.4881
rradius 17.1188
rwrist 18.553
rhand -18.7834 23.2845
rfingers 7.12502
rthumb 7.51424 -6.56201
lclavicle 1.30452e-014 0
lhumerus -20.0336 -3.82215 82.0288
lradius 31.0916
lwrist 7.81459
lhand -30.0023 19.9929
lfingers 7.12502
lthumb -3.31972 49.9468
rfemur -28.3677 4.28068 22.5625
rtibia 30.8512
rfoot -1.54026 -4.45103
rtoes 5.10164
lfemur 13.7128 -5.01587 -23.9158
ltibia 34.5486
lfoot -2.91892 -7.57968
ltoes -24.9584
